<svg width="12" height="7" viewBox="0 0 12 7" fill="none" xmlns="http://www.w3.org/2000/svg">
<path d="M5.50595 6.7984C5.561 6.86057 5.63465 6.91141 5.72058 6.94653C5.8065 6.98165 5.90212 7 5.99919 7C6.09626 7 6.19187 6.98165 6.27779 6.94653C6.36372 6.91141 6.43738 6.86057 6.49243 6.7984L11.8928 0.73215C11.9554 0.662181 11.992 0.580228 11.9988 0.495195C12.0057 0.410163 11.9824 0.325302 11.9315 0.249833C11.8807 0.174365 11.8042 0.111175 11.7105 0.0671292C11.6167 0.0230835 11.5092 -0.000133618 11.3996 5.78465e-07H0.598764C0.489461 0.000351679 0.38235 0.0238674 0.288948 0.0680186C0.195546 0.11217 0.119388 0.175286 0.0686635 0.25058C0.0179391 0.325874 -0.00543232 0.410497 0.00106256 0.495348C0.00755745 0.580199 0.0436729 0.662067 0.105525 0.73215L5.50595 6.7984Z" fill="black"/>
</svg>
